:SAMPLES-PER-SECOND 30
:FULLY-SPECIFIED
:DEGREES
173
root  -5.52613 38.7434 8.74176 179.831 25.5429 176.08
RightUpLeg  -15.2679 -2.89415 -14.352
RightLeg  27.8309 -5.0838 -3.12332
RightFoot  -6.15821 -0.863479 18.0405
RightToes  -1.74624e-010 0 -3.6325e-017
Spine  8.22649 -0.511324 -9.70375
Spine1  24.0584 -2.87373 3.25935
HEad  -12.1277 25.9303 -12.3663
LeftShoulder1  1.03743 -1.49683 -13.7882
LeftArm  10.4861 -3.86971 -56.1016
LeftForeArm  90.985 -79.1581 -102.227
LeftHand  -2.32046 -3.24742 30.7763
RightShoulder  0.771686 0.504121 12.2477
RightArm  11.0095 -17.1285 60.9651
RightForeArm  155.68 63.1751 159.061
RightHand  -0.721104 4.62375 -8.63225
LeftUpLeg  -11.2131 1.15462 4.56767
LeftLeg  21.9166 1.17969 0.866763
LeftFoot  -10.8231 0.115104 -11.0887
LeftToes  3.7286e-011 -1.5702e-010 -9.70233e-012
174
root  -5.3439 38.9863 8.83454 -179.061 25.0421 176.853
RightUpLeg  -14.0448 -4.62714 -12.9949
RightLeg  24.2776 -5.70356 -3.02591
RightFoot  -4.92119 -1.03918 17.7975
RightToes  -1.74624e-010 0 -3.6325e-017
Spine  7.55197 -0.687167 -8.97203
Spine1  23.5641 -2.83136 3.13141
HEad  -11.8635 25.6405 -11.73
LeftShoulder1  0.994359 -1.38358 -13.346
LeftArm  10.0212 -2.11726 -55.9671
LeftForeArm  94.5284 -78.9864 -105.852
LeftHand  -2.36774 -3.34609 31.0367
RightShoulder  0.744922 0.451529 11.7768
RightArm  10.7017 -16.8412 61.1787
RightForeArm  155.834 63.0599 159.174
RightHand  -0.765675 4.77891 -9.01307
LeftUpLeg  -11.0771 0.440547 5.50229
LeftLeg  19.5542 1.66693 1.0057
LeftFoot  -9.06222 0.276671 -11.1435
LeftToes  3.7286e-011 -1.5702e-010 -9.70233e-012
175
root  -5.14154 39.0549 8.95013 -178.398 24.3512 177.221
RightUpLeg  -13.1771 -6.39241 -12.1213
RightLeg  22.1237 -6.01815 -2.89948
RightFoot  -5.38939 -0.92268 16.9067
RightToes  -1.74624e-010 0 -3.6325e-017
Spine  6.99814 -0.815073 -8.48118
Spine1  23.2302 -2.87688 3.26707
HEad  -11.4223 25.2905 -11.3086
LeftShoulder1  0.967619 -1.31146 -13.0705
LeftArm  10.1317 -1.0149 -55.6968
LeftForeArm  93.5981 -79.031 -104.935
LeftHand  -2.3363 -3.32247 30.7209
RightShoulder  0.69061 0.225407 11.4339
RightArm  9.92791 -15.9581 61.5516
RightForeArm  155.508 63.2044 159.018
RightHand  -0.842597 4.96673 -9.7186
LeftUpLeg  -11.2764 -0.292082 6.17046
LeftLeg  18.4688 1.87862 1.06277
LeftFoot  -8.39731 0.344001 -11.4098
LeftToes  3.7286e-011 -1.5702e-010 -9.70233e-012
176
root  -4.93661 38.9557 9.13207 -178.42 24.0894 177.437
RightUpLeg  -12.9069 -6.25854 -11.4232
RightLeg  21.9641 -6.59413 -3.13667
RightFoot  -7.00708 -0.666907 16.2606
RightToes  -1.74624e-010 0 -3.6325e-017
Spine  7.09536 -0.667731 -7.99777
Spine1  23.0632 -2.66706 3.32775
HEad  -11.309 24.9977 -11.4569
LeftShoulder1  0.979414 -1.33248 -13.2414
LeftArm  10.5394 -0.743464 -55.3647
LeftForeArm  88.4065 -79.2299 -99.8605
LeftHand  -2.22511 -3.13069 29.9598
RightShoulder  0.634825 -0.0940534 11.5549
RightArm  8.85086 -14.2198 61.6321
RightForeArm  154.33 63.6339 158.523
RightHand  -0.9503 5.02664 -10.8541
LeftUpLeg  -11.569 -1.07891 6.84228
LeftLeg  18.9998 2.38282 1.24761
LeftFoot  -8.93162 0.299023 -11.6574
LeftToes  3.7286e-011 -1.5702e-010 -9.70233e-012
177
root  -4.7481 38.7645 9.39466 -179.123 24.6257 177.649
RightUpLeg  -13.1882 -3.95895 -10.6781
RightLeg  23.5923 -7.95127 -4.00951
RightFoot  -8.44522 -0.457007 15.703
RightToes  -1.74624e-010 0 -3.6325e-017
Spine  7.98242 -0.254523 -7.26906
Spine1  23.3024 -2.02143 2.82772
HEad  -12.0897 24.913 -12.227
LeftShoulder1  1.05757 -1.5991 -13.7611
LeftArm  10.7224 -0.976371 -55.2322
LeftForeArm  80.2135 -79.3753 -91.7363
LeftHand  -2.16525 -2.98588 29.674
RightShoulder  0.611761 -0.268625 11.8806
RightArm  7.76732 -11.767 61.5482
RightForeArm  153.207 64.4161 157.692
RightHand  -1.11825 5.13275 -12.5801
LeftUpLeg  -11.6226 -1.8064 7.57291
LeftLeg  20.6385 3.06623 1.61036
LeftFoot  -9.96263 0.206111 -12.1798
LeftToes  3.7286e-011 -1.5702e-010 -9.70233e-012
178
root  -4.57015 38.574 9.68318 179.945 25.5607 177.709
RightUpLeg  -13.8108 -1.49357 -10.026
RightLeg  25.9269 -9.14146 -5.02794
RightFoot  -9.35427 -0.32264 14.8323
RightToes  -1.74624e-010 0 -3.6325e-017
Spine  9.01733 0.143294 -6.51613
Spine1  24.0451 -1.2617 1.97017
HEad  -13.51 25.0617 -13.2109
LeftShoulder1  1.20156 -2.19534 -14.1636
LeftArm  10.379 -0.864735 -55.6697
LeftForeArm  71.5382 -79.3054 -82.9891
LeftHand  -2.2494 -3.03926 30.5738
RightShoulder  0.638179 -0.133063 11.9079
RightArm  6.98871 -9.41794 61.7124
RightForeArm  153.388 65.4539 156.7
RightHand  -1.29531 5.36007 -14.2228
LeftUpLeg  -11.4325 -2.24271 8.16166
LeftLeg  22.2401 3.61861 1.96105
LeftFoot  -10.6933 0.137963 -13.0235
LeftToes  3.7286e-011 -1.5702e-010 -9.70233e-012
179
root  -4.38154 38.4384 9.93039 179.356 26.0634 177.544
RightUpLeg  -14.4933 -0.520551 -9.64947
RightLeg  27.7662 -9.4162 -5.56345
RightFoot  -10.2166 -0.20773 14.0127
RightToes  -1.74624e-010 0 -3.6325e-017
Spine  9.53445 0.20416 -6.04529
Spine1  24.8584 -0.905315 1.30427
HEad  -14.5004 25.3672 -13.8632
LeftShoulder1  1.35295 -2.85768 -14.367
LeftArm  9.92135 0.165467 -56.728
LeftForeArm  65.7791 -79.1203 -77.2509
LeftHand  -2.39555 -3.16326 32.0144
RightShoulder  0.693579 0.198788 11.6717
RightArm  6.77588 -8.03837 62.007
RightForeArm  154.628 66.3347 155.923
RightHand  -1.3647 5.49976 -14.7756
LeftUpLeg  -11.4077 -2.00069 8.51446
LeftLeg  23.127 3.74463 2.08854
LeftFoot  -10.9262 0.114673 -13.5743
LeftToes  3.7286e-011 -1.5702e-010 -9.70233e-012
180
root  -4.18319 38.4006 10.1206 179.345 25.8285 177.426
RightUpLeg  -14.8606 -0.963255 -9.33772
RightLeg  28.2922 -9.19044 -5.55458
RightFoot  -10.8517 -0.13253 13.6705
RightToes  -1.74624e-010 0 -3.6325e-017
Spine  9.48298 -0.094194 -5.71279
Spine1  25.3075 -1.07764 1.09389
HEad  -14.3359 25.7512 -13.9581
LeftShoulder1  1.43069 -3.09513 -14.825
LeftArm  10.1113 1.83687 -58.1066
LeftForeArm  64.825 -79.0762 -76.2651
LeftHand  -2.46559 -3.24204 32.6133
RightShoulder  0.738709 0.444644 11.6386
RightArm  7.18775 -7.79366 61.8657
RightForeArm  155.356 66.6378 155.677
RightHand  -1.29393 5.41672 -14.1303
LeftUpLeg  -11.7898 -1.27641 8.88466
LeftLeg  23.3091 3.1884 1.84092
LeftFoot  -10.5561 0.15716 -13.7158
LeftToes  3.7286e-011 -1.5702e-010 -9.70233e-012
181
root  -3.97931 38.4836 10.273 179.707 25.431 177.465
RightUpLeg  -14.8075 -1.73091 -8.89763
RightLeg  27.4879 -9.06265 -5.31377
RightFoot  -10.702 -0.148831 13.5519
RightToes  -1.74624e-010 0 -3.6325e-017
Spine  9.12267 -0.40214 -5.44007
Spine1  25.4598 -1.35538 1.14164
HEad  -13.409 26.1492 -13.5953
LeftShoulder1  1.40592 -2.76261 -15.6507
LeftArm  11.1386 3.59644 -59.5889
LeftForeArm  67.9079 -79.2071 -78.6077
LeftHand  -2.44279 -3.35753 31.9242
RightShoulder  0.749633 0.44541 11.9466
RightArm  7.93132 -8.33427 61.194
RightForeArm  154.812 66.3373 155.939
RightHand  -1.17896 5.24201 -13.1182
LeftUpLeg  -12.3859 -0.473883 9.38819
LeftLeg  23.0972 1.95978 1.25209
LeftFoot  -9.14138 0.327156 -14.0806
LeftToes  3.7286e-011 -1.5702e-010 -9.70233e-012
